<svg width="132" height="132" fill="none" xmlns="http://www.w3.org/2000/svg"><path d="m115.368 48.288-.073.823.53.634L129.395 66l-13.57 16.255-.53.635.073.822 1.888 21.474-19.979 4.754-.849.202-.429.759-10.442 18.464-18.737-8.429-.823-.37-.822.372-18.734 8.486L36 110.964l-.43-.759-.848-.202-19.98-4.755 1.89-21.536.072-.823-.53-.634L2.603 65.998l13.575-16.319.526-.633-.072-.82-1.888-21.532 19.974-4.696.852-.2.43-.762L46.444 2.572l18.737 8.43.82.368.82-.369 18.735-8.428 10.443 18.523.429.762.85.202 19.979 4.754-1.888 21.474Z" stroke="#F8F200" stroke-width="4"/><path d="m54.304 90.084-5.833-5.834c-2.334-2.333-4.667-2.333-7 0l-5.41 5.41 2.334 2.333 5.409-5.41c.778-.777 1.548-.784 2.312-.02l.021.02-4.073 4.074c-1.951 1.951-1.972 3.882-.063 5.791 1.98 1.98 3.945 1.994 5.897.042l6.406-6.406Zm-9.927 4.073c-.382-.382-.375-.77.02-1.167l4.074-4.073 1.167 1.167-4.073 4.073c-.396.396-.792.396-1.188 0Zm21.7-15.846-3.33 3.33-7.17.17-1.167 1.167 3.5 3.5-2.333 2.333-9.334-9.334 2.334-2.333 3.5 3.5 1.167-1.167.19-7.19 3.31-3.31-.106 9.44 9.44-.106ZM64.39 61.33l7 7.001-3.5 3.5c-.778.778-1.555.778-2.333 0L59.722 66l-2.333 2.333 5.833 5.834c2.334 2.333 4.667 2.333 7 0L74.89 69.5l2.333 2.333 2.44-2.44-4.667-4.666L73.723 66l-7-7-2.334 2.333Zm22.916-4.248-2.334 2.334-.996-.997c-.396 2.008-1.16 3.578-2.291 4.71-2.334 2.333-4.667 2.333-7 0l-6.047-6.047 2.334-2.333 6.046 6.046c.763.763 1.541.763 2.333 0 1.358-1.754 1.782-3.663 1.273-5.728l-4.985-4.985 2.333-2.333 9.334 9.333Zm-5.091-7.636c-1.98-1.98-1.994-3.946-.043-5.898l6.407-6.406 9.334 9.334-2.334 2.333-3.5-3.5-1.04 1.04.573 6.427-3.033 3.034-.573-6.428c-1.952 1.952-3.882 1.973-5.791.064Zm6.364-7.637-4.073 4.073c-.396.396-.382.806.042 1.23.354.354.729.333 1.125-.063l4.073-4.073-1.167-1.167Z" fill="#F8F200"/></svg>