<svg width="32" height="32" fill="none" xmlns="http://www.w3.org/2000/svg"><g clip-path="url(#a)"><path d="M18.667 2.667H5.333c-1.48 0-2.666 1.2-2.666 2.666v13.334h2.666V5.333h13.334V2.667ZM24 8H10.667C9.187 8 8 9.2 8 10.667V24h2.667V10.667H24V8Zm2.667 5.333H16c-1.48 0-2.667 1.2-2.667 2.667v10.667A2.666 2.666 0 0 0 16 29.333h10.667c1.466 0 2.666-1.2 2.666-2.666V16c0-1.467-1.2-2.667-2.666-2.667Z" fill="#000"/></g><defs><clipPath id="a"><path fill="#fff" d="M0 0h32v32H0z"/></clipPath></defs></svg>