<svg width="173" height="74" fill="none" xmlns="http://www.w3.org/2000/svg"><g clip-path="url(#a)"><path d="M12.532 65.936c1.07-1.152 2.33-2.453 3.08-3.064-.21-.018-.544-.06-.906-.114-.783.714-1.783 1.756-2.678 2.712a96.663 96.663 0 0 0-2.07 2.298c-.013.01-.019.028-.034.041-.74.204-1.999.55-2.835.778-1.24.344-2.354.26-2.354 1.07 0 0-1.284.69-.983 1.715 0 0 2.576-2.057 4.78-2.405 0 0-1.347.875-1.225 2.062 0 0 1.815-2.714 3.933-1.068 0 0-.944-1.283-.55-1.989a110.73 110.73 0 0 1 1.842-2.036Zm-4.08-32.048a.838.838 0 0 1-.346.068.955.955 0 0 1-.88-.6c-.014-.03-.032-.067-.038-.105l-.28.093c.235.684.943 1.06 1.581.838.16-.057.304-.142.415-.252.352-.33.494-.867.319-1.377l-.641.22a.77.77 0 0 1 .068.305c0 .094-.017.18-.054.262l.292.178a.984.984 0 0 1-.188.217.78.78 0 0 1-.248.153Zm25.956-2.078L21.74 34.899v-.014l.004.014 24.744-10.705-20.392 2.497L37.01 18.72l-11.697 4.566 1.767-3.544-8.368 6.025-.07-.127L30.504 0l-19.29 22.827-.121-12.446-7.078 16.635-.368-4.903L.16 34.873l.006-.003v.003s.47-.347 1.102-.538l.153-.04c.006 0 .013-.006.02-.006.051-.01.102-.023.153-.031.006 0 .014-.006.024-.006a1.52 1.52 0 0 1 .16-.02v-.005c.055-.005.108-.007.16-.012h.033a.897.897 0 0 1 .164 0c.004 0 .007 0 .02.005.047 0 .095.002.146.013a1.21 1.21 0 0 1 .218.04 2.3 2.3 0 0 1 .166.049c1.193.431 2.208 0 2.208 0s1.123.72 1.123 1.325h-.002v.003s-1.478.087-1.478-.568c0 0-1.891-.671-4.536.309l5.578 2.398c-.003-.026-.297-1.064.025-1.425.102-.125.281-.169.561-.074.102.037.176.028.222-.017.434-.447-1.67-4.331-1.67-4.331s-1.889-.184-3.523 1.526a4.94 4.94 0 0 0-.327.367v-.005.006a7.189 7.189 0 0 1 1.581-1.867A5.388 5.388 0 0 1 4.431 30.9c.217-.52-.058-.181.388-.454.004 0 .004-.005.004-.005.21-1.37.985-4.896 3.66-7.913.18-.2.364-.403.56-.594 0 0-.685 1.288-.685 2.185.02-.023.697-1.038 1.632-1.967v-.004l-.025.04c-.173.372-1.449 3.094-1.315 3.889a.036.036 0 0 1 .006.02l2.578-2.363-.01.008c-.075.102-2.422 3.273-2.653 4.36v.008l3.904-2.788-.004.005c-.013.023-.492.69-.693 1.056-.143.262-.164.35-.164.378l.007.02 2.101-.9s-.09.109-.238.268l-.782.795-.193.204-1.421 1.436-.027.034-1.082 1.099-.694.706s-.567.59-.635.897c-.068.3.252.487.252.487h-.004c.29.16.523.41.66.709.075.18.118.377.118.588 0 .413-.17.788-.453 1.06a1.567 1.567 0 0 1-1.1.443c-.393 0-.741-.143-1.013-.37.047.063.815 1.03 2.226.279l1.744-1.271.075-.06 1.802-1.317a10.1 10.1 0 0 1 1.19 1.792 127.703 127.703 0 0 0-4.72 4.712 61.265 61.265 0 0 0-3.096 3.505l.65-3.054.054-.252s-.003 0-.003.004c-.007.003-.01.003-.016.008 0 .002-.008.007-.008.007-.007.003-.014.003-.018.014a.01.01 0 0 0-.01.01l-.023.012c-.004.003-.007.013-.018.015-.006.004-.016.013-.025.016-.006.01-.012.013-.022.02-.007.007-.013.015-.028.018-.01.01-.016.02-.027.026-.009.008-.02.02-.031.022a.077.077 0 0 1-.029.029c-.015.01-.024.022-.038.031-.01.007-.02.02-.03.03-.014.012-.031.02-.04.037-.018.007-.025.018-.042.026-.01.016-.027.029-.045.044-.009.01-.027.023-.037.036-.017.014-.037.03-.051.049-.014.012-.023.024-.041.033a.23.23 0 0 1-.057.058.184.184 0 0 0-.034.033.421.421 0 0 1-.038.034c0 .004-.003.004-.003.004-.02.018-.04.042-.061.064-.018.011-.031.03-.044.045-.024.019-.042.04-.062.059l-.05.05c-.014.022-.032.037-.041.05-.007.005-.016.015-.024.023 0 .002-.007.008-.014.015l-.037.038-.051.057c-.004.007-.007.013-.014.014l-.02.019a.144.144 0 0 1-.034.04.37.37 0 0 1-.068.074c-.018.026-.038.044-.055.07-.02.025-.047.052-.068.076-.02.025-.039.045-.058.07-.026.03-.047.06-.074.088-.017.023-.038.046-.06.073-.022.031-.046.059-.073.095-.02.018-.037.046-.059.069-.025.038-.053.07-.08.108-.021.027-.038.045-.052.07-.033.044-.068.087-.102.13-.01.018-.028.038-.037.055-.047.065-.098.132-.143.2l-.006.008c-.046.066-.093.132-.137.2a.899.899 0 0 1-.04.062c-.03.05-.067.102-.102.156-.018.026-.03.05-.05.076-.031.052-.063.097-.096.148l-.05.086c-.028.051-.062.103-.095.154-.015.031-.035.061-.051.094-.031.051-.059.104-.093.156-.018.027-.037.064-.055.095-.03.06-.061.11-.093.165-.014.031-.033.065-.05.1-.143.264-.282.537-.425.832v.006l-.718.12c.144-.37.286-.705.44-1.023l-1.17 1.647 1.17-.114c-1 2.299-1.735 5.307-1.735 9.592l.953-.603c.84 4.783 4.783 6.884 4.783 6.884l-.006-.03c2.172 1.422 4.816 2.416 7.73 2.81.405.051.733.081.807.089.002 0 .002 0 .002-.002.053.006.1.015.15.015a19.75 19.75 0 0 0 4.578-.133 2.43 2.43 0 0 0-.007.169c0 .947.526 1.726 1.197 1.79-1.377 2.344-2.494 5.455-2.497 5.47-.053.143-.163.408-.274.487-.34.077-.367.094-.743.21l.006-.004c-.127-.123-1.215-.327-2.323.09.002.004.002.004.009.01-.627.275-1.238.778-1.661 1.61.45-.364 1.291-.955 1.976-.873-.811.461-2.211 1.342-2.371 2.611 0 0 4.861-3.41 7.258-2.781 0 0-.35.396.477 1.87l.377-1.37c.431-1.33-1.234-1.526-1.934-1.554.003-.01.003-.015.003-.017 0 0 .078-.213.214-.565.412-1.064 1.373-3.418 2.425-5.098a.642.642 0 0 0 .044-.107l-.197-.271c.002 0 .142-.154.218-.267.139-.22.332-.594.336-1.088 0-.388-.095-.878-.372-1.486l.623-.289c.034.08.067.153.1.224l.026.072c.02.05.04.102.057.153.01.023.02.051.029.076.016.056.032.107.05.158.004.015.014.036.018.054l3.558-1.074-.789-.65h-.005l-.035-.034-.018-.014-13.457-12.253c.004 0 .008.007.008.007l-.004-.007a819.797 819.797 0 0 0 15.508 7.364c7.292 3.36 11.91 5.318 14.292 6.294.02.012.042.02.058.028h.004c.346.142.643.261.893.363l1.014.396c.04-.023.088-.035.13-.056L17.594 43.423 34.408 31.81ZM15.58 37.56l-4.056 3.084 2.911-6.401v-.005c.463.981.852 2.103 1.149 3.322h-.004Zm14.483 22.069.101.486h-.002l4.74 2.796 1.2.697-.656-1.688c3.91 1.153 7.095 1.218 9.213.22l-.002.001c-3.687 1.09-12.828-1.99-14.594-2.512Z" fill="#DC0D15"/><path d="M4.536 35.082c0 .654 1.479.568 1.479.568 0-.602-1.122-1.326-1.122-1.326s-1.014.429-2.213 0c-.48-.174-.983-.117-1.411.013C.701 34.717 0 35.395 0 35.395c2.646-.984 4.536-.313 4.536-.313Zm9.898-.839-2.911 6.4 4.056-3.084a17.658 17.658 0 0 0-1.145-3.316Zm30.244 27.891s-9.111-3.418-31.78-14.445l13.51 12.302h.006c1.21-.502 2.061-.86 3.746.125l-.099-.488c1.762.523 10.938 3.618 14.617 2.506Zm-21.936-.869c.276.609.371 1.099.371 1.486a2.058 2.058 0 0 1-.336 1.09 2.44 2.44 0 0 1-.217.265l.404.555c.044-.028.833-.625.833-1.91 0-.5-.12-1.091-.435-1.774l-.62.288Zm-8.133 1.476a21.38 21.38 0 0 0 1.229.156l.03-.34s-.574-.05-1.203-.152l-.056.336Zm-.462-29.08a10.084 10.084 0 0 0-1.19-1.791l-3.621 2.65c-1.462.773-2.233-.284-2.233-.284.268.23.625.371 1.02.371.86 0 1.55-.677 1.552-1.502 0-.208-.042-.408-.12-.583a1.527 1.527 0 0 0-.66-.713l.007-.002s-.32-.185-.252-.487c.068-.306.635-.896.635-.896l-.004.002 1.78-1.808.026-.032 1.615-1.642.782-.794c.147-.16.234-.264.234-.264l-2.104.897s-.04-.023.164-.4c.203-.372.696-1.06.696-1.06L8.568 28.11c.225-1.094 2.666-4.371 2.666-4.371l-2.579 2.359c-.173-.822 1.335-3.947 1.335-3.947-.95.94-1.632 1.973-1.632 1.973 0-.901.683-2.19.683-2.19-3.131 3.13-4 7.049-4.219 8.507-.453.283-.174-.062-.391.459-2.102.593-3.295 2.468-3.566 2.934C2.57 31.73 4.716 31.94 4.716 31.94s2.564 4.735 1.449 4.353c-1.124-.389-.586 1.495-.586 1.495l-2.097-.904c.346.684 1.026 2.296.636 3.973a12.7 12.7 0 0 0-1.24 2.44l.718-.12c.14-.3.28-.574.42-.836.02-.034.041-.066.056-.1.028-.055.06-.108.093-.163a2.36 2.36 0 0 1 .055-.1c.03-.05.056-.102.089-.152.02-.036.04-.066.054-.097.033-.051.06-.103.095-.15a.734.734 0 0 1 .05-.085c.031-.051.065-.102.096-.151a.408.408 0 0 1 .05-.078c.03-.052.066-.102.103-.153.015-.024.024-.047.04-.066.044-.067.091-.133.137-.197 0-.002.005-.007.005-.01.045-.069.093-.131.138-.196a.487.487 0 0 0 .043-.056l.098-.133a.656.656 0 0 1 .055-.066 4.52 4.52 0 0 1 .079-.112.426.426 0 0 0 .057-.07l.076-.094c.02-.023.043-.046.06-.071.028-.031.048-.058.071-.087.022-.022.04-.046.059-.069.024-.028.046-.055.071-.079.016-.023.037-.044.055-.065.023-.03.047-.052.063-.077.021-.018.038-.044.058-.062l.065-.067c.017-.024.034-.037.051-.058a.805.805 0 0 0 .065-.068.627.627 0 0 0 .05-.054.383.383 0 0 1 .063-.059c.013-.014.026-.03.044-.045.02-.022.041-.046.06-.064.018-.011.027-.028.041-.037l.092-.093c.018-.009.027-.02.04-.032.014-.018.035-.034.051-.05.01-.012.028-.025.038-.036.017-.014.035-.027.044-.043.018-.008.024-.02.041-.026.01-.017.028-.026.043-.037.009-.01.018-.023.029-.03.014-.01.023-.021.038-.032.009-.003.02-.015.029-.029.01-.001.022-.014.031-.021.011-.006.017-.016.027-.026.015-.003.02-.01.028-.018.01-.008.016-.01.022-.02.008-.003.019-.013.025-.016.01-.002.014-.012.017-.015a.15.15 0 0 1 .025-.013.01.01 0 0 1 .009-.01c.004-.01.01-.01.017-.013 0 0 .008-.005.008-.008.006-.004.01-.004.017-.007 0-.004.003-.004.003-.004l-.054.252-.65 3.053c2.465-3.053 6.105-6.596 7.816-8.216Zm-7.242-.317.282-.093a.424.424 0 0 0 .038.104c.153.373.505.6.88.6.12 0 .236-.018.347-.067a.935.935 0 0 0 .436-.37l-.292-.174a.636.636 0 0 0 .053-.266.78.78 0 0 0-.067-.306l.64-.219c.233.682-.093 1.411-.736 1.632-.638.218-1.347-.153-1.58-.841Zm59.31 5.127c-.433-.115-1.079-.18-1.92-.18H62.47v10.315l.194-.136 1.501-1.058.053-.039v-2.918h.574c1.059 0 1.918-.283 2.55-.831.636-.558.956-1.316.956-2.259 0-.882-.3-1.621-.893-2.204a2.673 2.673 0 0 0-1.19-.69Zm-1.52 4.498h-.481v-3.162h.54c1.378 0 2.073.51 2.073 1.53 0 1.088-.714 1.632-2.132 1.632Zm11.229 1.239a2.845 2.845 0 0 0 1.486-.977c.423-.525.633-1.166.633-1.894 0-.933-.341-1.7-1.011-2.272-.602-.51-1.59-.773-2.93-.773h-1.879v10.314l.19-.136 1.505-1.058.054-.039v-2.952h.082l2.808 4.02.068.102.102-.073 1.204-.87.102-.072-.072-.101-2.342-3.22Zm-1.952-1.24v-3.16h.539c1.38 0 2.074.51 2.074 1.53 0 1.088-.714 1.632-2.133 1.632h-.48Zm-24.257-4.37c-.593-.203-1.404-.306-2.41-.306h-2.209v10.197h2.186c1.014 0 1.81-.091 2.375-.281.597-.19 1.184-.53 1.733-1.01 1.088-.967 1.647-2.243 1.647-3.807 0-1.55-.535-2.826-1.583-3.782a4.646 4.646 0 0 0-1.739-1.011Zm.49 7.343c-.344.31-.737.543-1.17.684-.427.14-.98.209-1.637.209h-.553v-6.88h.553c1.239 0 2.19.295 2.817.874.704.655 1.054 1.514 1.054 2.563 0 1.044-.354 1.898-1.063 2.55Zm-11.477-6.178c.645 0 1.282.185 1.904.55l.108.062.057-.107.73-1.257.062-.106-.106-.064c-.851-.49-1.745-.738-2.649-.738-1.67 0-3.049.626-4.098 1.864-.855 1.016-1.288 2.18-1.288 3.473 0 1.436.52 2.69 1.536 3.71 1.029 1.01 2.282 1.524 3.734 1.524a5.56 5.56 0 0 0 2.765-.748l.061-.039v-.102l-.013-.028-.734-1.268-.063-.11-.111.072a4.08 4.08 0 0 1-.589.315c-.355.165-.79.247-1.302.247-.98 0-1.82-.35-2.5-1.04-.676-.688-1.02-1.548-1.02-2.553 0-1.02.344-1.894 1.02-2.592.675-.71 1.514-1.065 2.496-1.065Zm114.95.19.034-.034 1.384-1.413.21-.214h-5.912v10.197h4.318l.035-.033 1.355-1.414.198-.208h-4.158v-3.167h1.282l.035-.038 1.404-1.408.208-.213h-2.929v-2.054h2.536Zm-29.915 0h2.287v8.653l.195-.136 1.501-1.058.054-.039v-7.42h2.283v-1.661h-6.32v1.662Zm-36.978-1.846c-1.463 0-2.735.52-3.774 1.545-1.049 1.024-1.579 2.268-1.579 3.695 0 1.622.583 2.957 1.73 3.963 1.039.904 2.233 1.364 3.545 1.364 1.477 0 2.76-.52 3.803-1.539 1.045-1.015 1.574-2.268 1.574-3.729 0-1.448-.525-2.71-1.564-3.74-1.034-1.034-2.288-1.559-3.735-1.559Zm2.496 7.863c-.695.694-1.554 1.043-2.56 1.043-.918 0-1.748-.345-2.452-1.03-.714-.678-1.074-1.558-1.074-2.62 0-1.006.35-1.866 1.035-2.55.685-.696 1.54-1.05 2.536-1.05 1 0 1.85.355 2.526 1.05.684.69 1.029 1.558 1.029 2.578 0 1.005-.35 1.875-1.04 2.58Zm76.458-6.361a4.657 4.657 0 0 0-1.744-1.011c-.593-.203-1.399-.306-2.409-.306h-2.21v10.197h2.185c1.016 0 1.818-.091 2.381-.281.597-.19 1.179-.53 1.729-1.01 1.093-.967 1.646-2.243 1.646-3.807 0-1.55-.529-2.826-1.578-3.782Zm-1.249 6.332c-.35.31-.744.543-1.17.684-.432.14-.982.209-1.642.209h-.553v-6.88h.553c1.244 0 2.191.295 2.823.874.699.655 1.052 1.514 1.052 2.563 0 1.044-.353 1.898-1.063 2.55Zm-21.818-1.733a2.86 2.86 0 0 0 1.487-.977c.422-.525.631-1.166.631-1.894 0-.933-.34-1.7-1.01-2.272-.608-.51-1.589-.773-2.93-.773h-1.884v10.314l.195-.136 1.505-1.058.054-.039v-2.952h.081l2.803 4.02.074.102.102-.073 1.203-.87.097-.072-.067-.101-2.341-3.22Zm-1.952-1.24v-3.161h.533c1.385 0 2.075.51 2.075 1.53 0 1.088-.71 1.632-2.133 1.632h-.475Zm-21.737-4.637-3.661 3.753V38.18l-.195.141-1.501 1.054-.054.039v9.192l.2-.136 1.5-1.058.05-.039V44.3l.178-.175 3.497 4.322.069.087.097-.063 1.287-.87.112-.077-.088-.107-3.724-4.487 4.419-4.423.209-.214h-2.355l-.04.039ZM97.471 39.38l-.054.039v5.433c0 .822-.087 1.398-.257 1.719-.15.301-.418.442-.816.442-.291 0-.607-.11-.947-.339l-.112-.073-.063.11-.743 1.283-.058.107.101.063c.563.336 1.175.51 1.822.51.865 0 1.568-.316 2.093-.927a2.8 2.8 0 0 0 .574-1.141c.106-.388.164-.962.164-1.749V38.18l-.199.141-1.505 1.059Zm10.749.574.038-.035 1.384-1.413.205-.214h-5.906v10.197h4.313l.039-.033 1.349-1.414.201-.208h-4.153v-3.167h1.277l.033-.038 1.404-1.408.209-.213h-2.923v-2.054h2.53Zm62.047 1.716c-.984 0-1.783-.8-1.783-1.783 0-.993.799-1.783 1.783-1.783.992 0 1.783.79 1.783 1.783a1.78 1.78 0 0 1-1.783 1.782Zm0-3.298c-.841 0-1.515.665-1.515 1.515a1.514 1.514 0 0 0 3.028 0c0-.85-.672-1.515-1.513-1.515Zm.488 2.54-.53-.807h-.353v.807h-.287v-2.043h.833c.345 0 .665.243.665.623a.598.598 0 0 1-.521.604l.546.816h-.353Zm-.337-1.79h-.546v.722h.546c.176 0 .37-.142.37-.352a.373.373 0 0 0-.37-.37Z" fill="#000"/></g><defs><clipPath id="a"><path fill="#fff" d="M0 0h172.05v74H0z"/></clipPath></defs></svg>