<svg width="32" height="32" fill="none" xmlns="http://www.w3.org/2000/svg"><g clip-path="url(#a)"><path d="M16 4C9.373 4 4 9.373 4 16s5.373 12 12 12c1.107 0 2-.893 2-2 0-.52-.2-.987-.52-1.347a2.002 2.002 0 0 1-.507-1.32c0-1.106.894-2 2-2h2.36A6.67 6.67 0 0 0 28 14.667C28 8.773 22.627 4 16 4ZM8.667 16c-1.107 0-2-.893-2-2s.893-2 2-2c1.106 0 2 .893 2 2s-.894 2-2 2Zm4-5.333c-1.107 0-2-.894-2-2 0-1.107.893-2 2-2 1.106 0 2 .893 2 2 0 1.106-.894 2-2 2Zm6.666 0c-1.106 0-2-.894-2-2 0-1.107.894-2 2-2 1.107 0 2 .893 2 2 0 1.106-.893 2-2 2Zm4 5.333c-1.106 0-2-.893-2-2s.894-2 2-2c1.107 0 2 .893 2 2s-.893 2-2 2Z" fill="#000"/></g><defs><clipPath id="a"><path fill="#fff" d="M0 0h32v32H0z"/></clipPath></defs></svg>