<svg width="80" height="80" fill="none" xmlns="http://www.w3.org/2000/svg"><g clip-path="url(#a)"><path d="M40 80c-.397 0-.793-.007-1.188-.019l8.175-22.466h11.25c1.974 0 4.142-1.518 4.817-3.372l8.869-24.36c1.45-3.99-.834-7.252-5.078-7.252H51.239L38.143 58.515h-.005l-7.424 20.4C13.101 74.726.001 58.894.001 40 0 21.65 12.356 6.189 29.2 1.477l-7.66 21.054h-.002L8.804 57.515h8.478l10.83-29.727h6.37l-10.83 29.728 8.475.001 10.092-27.735c1.452-3.988-.833-7.251-5.073-7.251H30.02L38.203.042A40.497 40.497 0 0 1 40 0c22.092 0 40 17.909 40 40S62.092 80 40 80Zm24.203-52.233h-6.37l-8.92 24.473h6.37l8.92-24.473Z" fill="#000"/></g><defs><clipPath id="a"><path fill="#fff" d="M0 0h80v80H0z"/></clipPath></defs></svg>