<svg width="58" height="33" fill="none" xmlns="http://www.w3.org/2000/svg"><path d="M.516.866h16.651c1.835 0 3.46.363 4.874 1.09 1.414.695 2.512 1.71 3.294 3.04.782 1.302 1.173 2.8 1.173 4.494v4.221c0 1.755-.406 3.314-1.218 4.676-.812 1.33-1.956 2.375-3.43 3.131-1.444.727-3.128 1.09-5.054 1.09H6.743v10.03H.516V.867Zm16.2 16.295c1.053 0 1.91-.333 2.572-.999.662-.696.993-1.603.993-2.723V9.762c0-1.059-.3-1.89-.902-2.496-.572-.635-1.34-.953-2.302-.953H6.743V17.16h9.973Zm23.977 15.841c-2.316 0-4.362-.5-6.137-1.498-1.745-.998-3.098-2.405-4.061-4.221-.963-1.846-1.444-3.964-1.444-6.355v-8.351c0-2.39.481-4.494 1.444-6.31.993-1.845 2.377-3.268 4.152-4.266 1.805-.999 3.88-1.498 6.227-1.498h4.783c2.257 0 4.242.484 5.957 1.452a9.961 9.961 0 0 1 3.97 4.085c.964 1.725 1.445 3.738 1.445 6.037h-6.137c0-1.815-.482-3.268-1.444-4.357-.963-1.12-2.226-1.68-3.79-1.68h-4.784c-1.685 0-3.039.636-4.062 1.907-1.022 1.24-1.534 2.875-1.534 4.902v7.807c0 2.027.497 3.677 1.49 4.948.992 1.24 2.3 1.86 3.925 1.86h4.874c1.594 0 2.888-.62 3.88-1.86 1.024-1.241 1.535-2.875 1.535-4.903h6.137c0 2.451-.481 4.615-1.444 6.491-.962 1.846-2.316 3.283-4.061 4.312-1.745.999-3.76 1.498-6.047 1.498h-4.874Z" fill="#FBF503"/></svg>