<svg width="178" height="36" fill="none" xmlns="http://www.w3.org/2000/svg"><g clip-path="url(#a)" fill="#FBF503"><path d="m113.88 28.71-6.794-9.151-6.787 9.15h-2.796l8.168-11.056-7.46-10.05h2.796l6.079 8.197 6.078-8.197h2.795l-7.455 10.048 8.17 11.059h-2.794Zm-52.944-.004L52.76 17.651l7.46-10.048h-2.797l-6.08 8.199-6.075-8.199h-2.789l7.456 10.048-8.175 11.055h2.8l6.787-9.147 6.792 9.147h2.798Z"/><path d="M76.484 18.45a5.964 5.964 0 0 0-1.394-.88 4.803 4.803 0 0 0 1.87-1.761c.45-.745.688-1.597.687-2.466 0-1.35-.501-5.742-6.914-5.742h-8.636v9.1h-2.876a63.081 63.081 0 0 0-1.543 2.118h4.42v9.887l8.637.002c4.679 0 7.585-2.357 7.585-6.162 0-1.66-.632-3.072-1.836-4.095ZM64.485 9.805h6.25c1.69 0 4.524.418 4.524 3.354 0 2.22-1.65 3.543-4.524 3.543h-6.25V9.804Zm6.248 16.703h-6.25v-7.683h6.25c2.37 0 5.205.65 5.205 3.676 0 3.485-3.26 4.007-5.205 4.007Zm18.821-19.39c-5.974 0-10.15 4.534-10.15 11.027 0 6.502 4.176 11.032 10.15 11.032 5.969 0 10.133-4.53 10.133-11.032 0-6.493-4.164-11.027-10.133-11.027Zm0 19.826c-4.552 0-7.74-3.62-7.74-8.8 0-5.179 3.188-8.797 7.74-8.797 4.545 0 7.716 3.618 7.716 8.798s-3.171 8.8-7.716 8.8ZM5.296 5.344l-.016.015v.002a17.53 17.53 0 0 0-3.906 5.733 17.42 17.42 0 0 0-1.368 6.785A17.431 17.431 0 0 0 3.63 28.536c.024.03.062.046.095.03.032-.019.034-.058.02-.091-1.35-4.147 5.557-14.2 9.127-18.413.011-.015.026-.032.026-.052 0-.024-.017-.043-.034-.058C6.86 4.022 5.257 5.378 5.28 5.36l.016-.015Zm24.878 0 .017.015v.002c1.672 1.635 3 3.583 3.905 5.733a17.418 17.418 0 0 1 1.366 6.785 17.431 17.431 0 0 1-3.624 10.657c-.022.03-.061.046-.095.03-.03-.019-.031-.058-.02-.091 1.351-4.147-5.551-14.207-9.119-18.423-.013-.014-.026-.031-.026-.05 0-.025.015-.044.034-.059 6.005-5.93 7.597-4.565 7.577-4.584l-.015-.015ZM17.735.285c3.577 0 6.52.973 9.235 2.575.033.017.042.054.03.087-.014.032-.05.039-.086.03-3.432-.737-8.65 2.207-9.142 2.5a.059.059 0 0 1-.037.015.068.068 0 0 1-.039-.014c-1.309-.746-6.13-3.254-9.167-2.483-.034.008-.071.002-.086-.031a.07.07 0 0 1 .03-.087C11.187 1.258 14.167.285 17.735.285Zm0 14.11c.02 0 .043.017.056.029 5.305 4.003 14.385 13.9 11.613 16.698l.004-.004-.002.004h-.004a17.733 17.733 0 0 1-11.669 4.353 17.742 17.742 0 0 1-11.67-4.353l-.004-.004.004.004c-2.767-2.799 6.311-12.695 11.61-16.698.016-.012.04-.028.062-.028Zm140.213-6.792v17.32L145.091 7.59l-2.108-.003v21.088h2.367V11.738l12.594 16.95 2.373.003V7.603h-2.369Zm-27.254-.49c-5.975 0-10.152 4.536-10.152 11.027 0 6.502 4.177 11.04 10.152 11.04 5.968 0 10.132-4.538 10.132-11.04 0-6.49-4.164-11.027-10.132-11.027Zm0 19.83c-4.552 0-7.742-3.62-7.742-8.803 0-5.178 3.19-8.798 7.742-8.798 4.544 0 7.715 3.62 7.715 8.798 0 5.183-3.171 8.803-7.715 8.803Zm34.661-.316v-7.803h11.701V16.76h-11.701V9.65h12.495V7.589h-14.875v21.103h15.022v-2.064h-12.642Z"/></g><defs><clipPath id="a"><path fill="#fff" transform="translate(0 .285)" d="M0 0h178v35.188H0z"/></clipPath></defs></svg>